# xmcd
#
# Track frame offsets:
# 187
# 15705
# 32685
# 48900
# 67612
# 83070
# 98640
# 122195
# 138677
# 152322
# 166262
# 179607
# 192000
# 208072
# 222175
# 235245
# 244312
# 255475
# 274390
# 288000
#
# Disc length: 4138 seconds
#
# Revision: 0
# Processed by: cddbd v1.4PL0 Copyright (c) Steve Scherf et al.
# Submitted via: MacMP3 Pro 5.0 (http://mp3.act2.co.jp/)
#
DISCID=12102814
DTITLE=MANTOVANI - MANTOVANI ORCHESTRA DELUXE
DYEAR=1900
DGENRE=
TTITLE0=CHARMAINE
TTITLE1=LOVE IS A MANY SPLENDORED THING
TTITLE2=SUMMERTIME IN VENICE
TTITLE3=CATARI
TTITLE4=SOME ENCHANTED EVENING
TTITLE5=LA MER
TTITLE6=MERRY WIDOW WALTZ
TTITLE7=TALES FROM THE VIENNA WOODS
TTITLE8=THE SKATERS' WALTZ
TTITLE9=TRITSCH TRATSCH POLKA
TTITLE10=COME PRIMA
TTITLE11=TONIGHT
TTITLE12=GREENSLEEVES 
TTITLE13=MOULIN ROUGE
TTITLE14=CARA MIA
TTITLE15=AROUND THE WORLD
TTITLE16=MOON RIVER
TTITLE17=GRANADA
TTITLE18=ESTRELITA 
TTITLE19=ZIGEUNERWEISEN
EXTD=
EXTT0=
EXTT1=
EXTT2=
EXTT3=
EXTT4=
EXTT5=
EXTT6=
EXTT7=
EXTT8=
EXTT9=
EXTT10=
EXTT11=
EXTT12=
EXTT13=
EXTT14=
EXTT15=
EXTT16=
EXTT17=
EXTT18=
EXTT19=
PLAYORDER=
